<?xml version="1.0" encoding="utf-8"?>
<!-- Svg Vector Icons : http://www.onlinewebfonts.com/icon -->
<!DOCTYPE svg PUBLIC "-//W3C//DTD SVG 1.1//EN" "http://www.w3.org/Graphics/SVG/1.1/DTD/svg11.dtd">
<svg version="1.1" xmlns="http://www.w3.org/2000/svg" xmlns:xlink="http://www.w3.org/1999/xlink" x="0px" y="0px" viewBox="0 0 1000 1000" enable-background="new 0 0 1000 1000" xml:space="preserve">
<metadata> Svg Vector Icons : http://www.onlinewebfonts.com/icon </metadata>
<g><g transform="translate(0.000000,511.000000) scale(0.100000,-0.100000)"><path d="M1517.9,1612.5L100,196.5V110V23.5l1417.9-1416l1416-1417.9h3406.4c3704.2,0,3485.2-5.8,3535.2,105.7c32.7,73,32.7,5556.4,0,5629.4c-50,111.4,169.1,105.7-3535.2,105.7H2933.9L1517.9,1612.5z M9495.1,110v-2516.9H6300H3106.8L1848.4-1148.4L589.9,110l1258.4,1258.4l1258.4,1258.4H6300h3195.1V110z"/><path d="M4305.7,1631.7c-55.7-50-65.3-71.1-65.3-146v-88.4L4884,753.6L5527.6,110l-639.8-639.8c-541.8-541.8-639.8-649.4-649.4-705.1c-23.1-144.1,140.3-269,274.8-213.3c30.7,11.5,336.2,303.6,678.2,645.5l624.4,624.4l643.6-643.6c587.9-586,651.3-643.6,709-643.6c130.6,0,213.3,88.4,213.3,226.7c0,65.3-32.7,101.8-637.9,709L6104,110l639.8,639.8l637.9,639.8v84.5c-1.9,130.6-82.6,211.3-215.2,211.3c-55.7,0-122.9-59.6-707-643.6l-643.6-643.6l-635.9,635.9c-620.6,620.6-637.9,636-722.4,645.6C4380.6,1689.3,4363.3,1683.5,4305.7,1631.7z"/></g></g>
</svg>